<mxfile host="app.diagrams.net" modified="2023-12-14T22:20:25.305Z" agent="Mozilla/5.0 (Windows NT 10.0; Win64; x64) AppleWebKit/537.36 (KHTML, like Gecko) Chrome/120.0.0.0 Safari/537.36" etag="g7kIJSYKWmNpVsTO8nD4" version="22.1.9" type="device">
  <diagram name="PÃ¡gina-1" id="Z0bjviKogohp0-KgsobZ">
    <mxGraphModel dx="933" dy="760" grid="1" gridSize="10" guides="1" tooltips="1" connect="1" arrows="1" fold="1" page="1" pageScale="1" pageWidth="827" pageHeight="1169" math="0" shadow="0">
      <root>
        <mxCell id="0" />
        <mxCell id="1" parent="0" />
        <mxCell id="3l8c4Cg195QILtrW6GXI-17" value="" style="edgeStyle=orthogonalEdgeStyle;rounded=0;orthogonalLoop=1;jettySize=auto;html=1;" edge="1" parent="1" source="3l8c4Cg195QILtrW6GXI-14" target="3l8c4Cg195QILtrW6GXI-16">
          <mxGeometry relative="1" as="geometry" />
        </mxCell>
        <mxCell id="3l8c4Cg195QILtrW6GXI-22" style="edgeStyle=orthogonalEdgeStyle;rounded=0;orthogonalLoop=1;jettySize=auto;html=1;entryX=0.5;entryY=1;entryDx=0;entryDy=0;" edge="1" parent="1" target="3l8c4Cg195QILtrW6GXI-21">
          <mxGeometry relative="1" as="geometry">
            <mxPoint x="230" y="225" as="sourcePoint" />
          </mxGeometry>
        </mxCell>
        <mxCell id="3l8c4Cg195QILtrW6GXI-23" style="edgeStyle=orthogonalEdgeStyle;rounded=0;orthogonalLoop=1;jettySize=auto;html=1;" edge="1" parent="1" target="3l8c4Cg195QILtrW6GXI-18">
          <mxGeometry relative="1" as="geometry">
            <mxPoint x="210" y="225" as="sourcePoint" />
            <Array as="points">
              <mxPoint x="210" y="190" />
              <mxPoint x="130" y="190" />
            </Array>
          </mxGeometry>
        </mxCell>
        <mxCell id="3l8c4Cg195QILtrW6GXI-24" style="edgeStyle=orthogonalEdgeStyle;rounded=0;orthogonalLoop=1;jettySize=auto;html=1;entryX=1;entryY=0.5;entryDx=0;entryDy=0;" edge="1" parent="1" target="3l8c4Cg195QILtrW6GXI-19">
          <mxGeometry relative="1" as="geometry">
            <mxPoint x="230" y="225" as="sourcePoint" />
            <Array as="points">
              <mxPoint x="230" y="288" />
            </Array>
          </mxGeometry>
        </mxCell>
        <mxCell id="3l8c4Cg195QILtrW6GXI-26" style="edgeStyle=orthogonalEdgeStyle;rounded=0;orthogonalLoop=1;jettySize=auto;html=1;entryX=0.5;entryY=0;entryDx=0;entryDy=0;" edge="1" parent="1" target="3l8c4Cg195QILtrW6GXI-20">
          <mxGeometry relative="1" as="geometry">
            <mxPoint x="240" y="225" as="sourcePoint" />
          </mxGeometry>
        </mxCell>
        <mxCell id="3l8c4Cg195QILtrW6GXI-29" value="" style="edgeStyle=orthogonalEdgeStyle;rounded=0;orthogonalLoop=1;jettySize=auto;html=1;" edge="1" parent="1" source="3l8c4Cg195QILtrW6GXI-14" target="3l8c4Cg195QILtrW6GXI-28">
          <mxGeometry relative="1" as="geometry" />
        </mxCell>
        <mxCell id="3l8c4Cg195QILtrW6GXI-31" value="1" style="edgeLabel;html=1;align=center;verticalAlign=middle;resizable=0;points=[];" vertex="1" connectable="0" parent="3l8c4Cg195QILtrW6GXI-29">
          <mxGeometry x="-0.4422" y="-1" relative="1" as="geometry">
            <mxPoint as="offset" />
          </mxGeometry>
        </mxCell>
        <mxCell id="3l8c4Cg195QILtrW6GXI-14" value="&lt;font style=&quot;font-size: 14px;&quot;&gt;funko_pop&lt;/font&gt;" style="rounded=0;whiteSpace=wrap;html=1;" vertex="1" parent="1">
          <mxGeometry x="260" y="210" width="90" height="30" as="geometry" />
        </mxCell>
        <mxCell id="3l8c4Cg195QILtrW6GXI-34" value="" style="edgeStyle=orthogonalEdgeStyle;rounded=0;orthogonalLoop=1;jettySize=auto;html=1;" edge="1" parent="1" source="3l8c4Cg195QILtrW6GXI-15" target="3l8c4Cg195QILtrW6GXI-33">
          <mxGeometry relative="1" as="geometry" />
        </mxCell>
        <mxCell id="3l8c4Cg195QILtrW6GXI-15" value="&lt;font style=&quot;font-size: 14px;&quot;&gt;categoria_funko&lt;/font&gt;" style="rounded=0;whiteSpace=wrap;html=1;" vertex="1" parent="1">
          <mxGeometry x="560" y="205" width="110" height="40" as="geometry" />
        </mxCell>
        <mxCell id="3l8c4Cg195QILtrW6GXI-16" value="&lt;span style=&quot;font-size: 14px;&quot;&gt;&lt;u&gt;categoria&lt;/u&gt;&lt;/span&gt;" style="ellipse;whiteSpace=wrap;html=1;rounded=0;" vertex="1" parent="1">
          <mxGeometry x="80" y="207.5" width="80" height="35" as="geometry" />
        </mxCell>
        <mxCell id="3l8c4Cg195QILtrW6GXI-18" value="&lt;span style=&quot;font-size: 14px;&quot;&gt;funko_nombre&lt;br&gt;&lt;/span&gt;" style="ellipse;whiteSpace=wrap;html=1;rounded=0;" vertex="1" parent="1">
          <mxGeometry x="75" y="140" width="110" height="35" as="geometry" />
        </mxCell>
        <mxCell id="3l8c4Cg195QILtrW6GXI-19" value="&lt;span style=&quot;font-size: 14px;&quot;&gt;funko_numero&lt;/span&gt;" style="ellipse;whiteSpace=wrap;html=1;rounded=0;" vertex="1" parent="1">
          <mxGeometry x="75" y="270" width="110" height="35" as="geometry" />
        </mxCell>
        <mxCell id="3l8c4Cg195QILtrW6GXI-20" value="&lt;span style=&quot;font-size: 14px;&quot;&gt;foto&lt;/span&gt;" style="ellipse;whiteSpace=wrap;html=1;rounded=0;" vertex="1" parent="1">
          <mxGeometry x="200" y="340" width="80" height="35" as="geometry" />
        </mxCell>
        <mxCell id="3l8c4Cg195QILtrW6GXI-21" value="&lt;font style=&quot;font-size: 14px;&quot;&gt;&lt;u&gt;&lt;b&gt;funko_id&lt;/b&gt;&lt;/u&gt;&lt;/font&gt;" style="ellipse;whiteSpace=wrap;html=1;rounded=0;" vertex="1" parent="1">
          <mxGeometry x="170" y="90" width="80" height="35" as="geometry" />
        </mxCell>
        <mxCell id="3l8c4Cg195QILtrW6GXI-30" style="edgeStyle=orthogonalEdgeStyle;rounded=0;orthogonalLoop=1;jettySize=auto;html=1;exitX=1;exitY=0.5;exitDx=0;exitDy=0;entryX=0;entryY=0.5;entryDx=0;entryDy=0;" edge="1" parent="1" source="3l8c4Cg195QILtrW6GXI-28" target="3l8c4Cg195QILtrW6GXI-15">
          <mxGeometry relative="1" as="geometry" />
        </mxCell>
        <mxCell id="3l8c4Cg195QILtrW6GXI-32" value="1" style="edgeLabel;html=1;align=center;verticalAlign=middle;resizable=0;points=[];" vertex="1" connectable="0" parent="3l8c4Cg195QILtrW6GXI-30">
          <mxGeometry x="0.2564" y="1" relative="1" as="geometry">
            <mxPoint as="offset" />
          </mxGeometry>
        </mxCell>
        <mxCell id="3l8c4Cg195QILtrW6GXI-28" value="&lt;font style=&quot;font-size: 14px;&quot;&gt;Pertenece&lt;/font&gt;" style="rhombus;whiteSpace=wrap;html=1;rounded=0;" vertex="1" parent="1">
          <mxGeometry x="413.5" y="202.5" width="105" height="45" as="geometry" />
        </mxCell>
        <mxCell id="3l8c4Cg195QILtrW6GXI-33" value="funko_categoria_id" style="ellipse;whiteSpace=wrap;html=1;rounded=0;" vertex="1" parent="1">
          <mxGeometry x="700" y="140" width="110" height="45" as="geometry" />
        </mxCell>
        <mxCell id="3l8c4Cg195QILtrW6GXI-35" value="nombre" style="ellipse;whiteSpace=wrap;html=1;rounded=0;" vertex="1" parent="1">
          <mxGeometry x="720" y="260" width="80" height="30" as="geometry" />
        </mxCell>
        <mxCell id="3l8c4Cg195QILtrW6GXI-36" style="edgeStyle=orthogonalEdgeStyle;rounded=0;orthogonalLoop=1;jettySize=auto;html=1;exitX=1;exitY=0.5;exitDx=0;exitDy=0;entryX=0.438;entryY=0.053;entryDx=0;entryDy=0;entryPerimeter=0;" edge="1" parent="1" source="3l8c4Cg195QILtrW6GXI-15" target="3l8c4Cg195QILtrW6GXI-35">
          <mxGeometry relative="1" as="geometry" />
        </mxCell>
      </root>
    </mxGraphModel>
  </diagram>
</mxfile>
